<svg width="24" height="24" viewBox="0 0 24 24" fill="none" xmlns="http://www.w3.org/2000/svg">
<g clip-path="url(#clip0_4_136)">
<path d="M23.6719 12.0469C23.6719 13.6781 23.6391 15.3141 23.6813 16.9453C23.7516 19.8328 21.9375 22.0641 19.6266 23.0578C18.6985 23.4562 17.7234 23.6672 16.7156 23.6672C13.5609 23.6719 10.4016 23.7141 7.24689 23.6531C4.87032 23.6062 2.91564 22.6125 1.51407 20.6531C0.778137 19.6219 0.426575 18.45 0.426575 17.1797C0.426575 13.8187 0.426575 10.4625 0.426575 7.10155C0.426575 4.35936 1.76251 2.44218 4.13439 1.1953C5.16564 0.656238 6.28595 0.426551 7.45314 0.421863C10.5141 0.421863 13.5797 0.403113 16.6406 0.431238C19.0172 0.449988 21 1.35936 22.4625 3.27186C23.2781 4.34061 23.6719 5.56874 23.6719 6.91874C23.6719 8.62499 23.6719 10.3359 23.6719 12.0469ZM2.15626 12.0469C2.15626 13.7672 2.15626 15.4828 2.15626 17.2031C2.15626 17.9719 2.33439 18.6937 2.73282 19.3453C3.77814 21.0562 5.35782 21.8906 7.3172 21.9234C10.4625 21.9703 13.6125 21.9422 16.7625 21.9328C17.5359 21.9328 18.2859 21.7734 18.9844 21.4406C20.8875 20.5312 21.9516 19.0828 21.9422 16.9078C21.9235 13.5797 21.9375 10.2516 21.9375 6.92343C21.9375 5.98124 21.6703 5.11874 21.1125 4.35936C20.0344 2.90155 18.5438 2.18436 16.7625 2.16561C13.6219 2.12811 10.4813 2.15155 7.34064 2.15624C6.67032 2.15624 6.02345 2.29218 5.39532 2.52655C3.67032 3.16874 2.0672 4.7953 2.1422 7.19061C2.19845 8.81249 2.15626 10.4297 2.15626 12.0469Z" fill="white"/>
<path d="M12.075 17.0156C9.05157 17.0156 6.61407 14.6062 6.60938 11.6062C6.60469 8.6531 9.06094 6.23435 12.0656 6.23435C15.0797 6.22966 17.5266 8.64373 17.5313 11.6203C17.5313 14.5922 15.0891 17.0109 12.075 17.0156ZM12.075 15.2812C14.1328 15.2812 15.8016 13.6359 15.7969 11.6109C15.7922 9.60466 14.1234 7.96404 12.075 7.96404C10.0172 7.96404 8.33907 9.59998 8.33907 11.6203C8.34376 13.6453 10.0172 15.2859 12.075 15.2812Z" fill="white"/>
<path d="M18.164 4.59375C18.7969 4.59375 19.3125 5.13281 19.3125 5.79375C19.3078 6.45469 18.7875 6.98906 18.1547 6.98438C17.5312 6.97969 17.0203 6.44531 17.0203 5.79844C17.0156 5.1375 17.5312 4.59375 18.164 4.59375Z" fill="white"/>
</g>
<defs>
<clipPath id="clip0_4_136">
<rect width="24" height="24" fill="white"/>
</clipPath>
</defs>
</svg>
