<svg width="22" height="22" viewBox="0 0 22 22" fill="none" xmlns="http://www.w3.org/2000/svg">
<path d="M2.5 0C1.13094 0 0 1.13094 0 2.5V19.5C0 20.8691 1.13094 22 2.5 22H19.5C20.8691 22 22 20.8691 22 19.5V2.5C22 1.13094 20.8691 0 19.5 0H2.5ZM2.5 2H19.5C19.7869 2 20 2.21306 20 2.5V19.5C20 19.7869 19.7869 20 19.5 20H2.5C2.21306 20 2 19.7869 2 19.5V2.5C2 2.21306 2.21306 2 2.5 2ZM5.4375 3.71875C4.4875 3.71875 3.71875 4.4885 3.71875 5.4375C3.71875 6.3865 4.4865 7.15625 5.4375 7.15625C6.3855 7.15625 7.15625 6.3865 7.15625 5.4375C7.15625 4.4895 6.3855 3.71875 5.4375 3.71875ZM14.4688 8.28125C13.0338 8.28125 12.0815 9.0665 11.6875 9.8125H11.625V8.5H8.8125V18H11.75V13.3125C11.75 12.0745 11.9963 10.875 13.5312 10.875C15.0443 10.875 15.0625 12.274 15.0625 13.375V18H18V12.7812C18 10.2253 17.4557 8.28125 14.4688 8.28125ZM4 8.5V18H6.96875V8.5H4Z" fill="white"/>
</svg>
