<svg width="34" height="30" viewBox="0 0 34 30" fill="none" xmlns="http://www.w3.org/2000/svg">
<path d="M16.692 14.836C15.224 14.836 13.998 13.931 13.22 13.357C12.171 12.584 11.087 11.749 9.90401 10.805C7.84101 9.15896 6.00801 7.29496 4.23601 5.49196C3.38601 4.62796 2.53501 3.76196 1.65501 2.91496C1.25701 2.53196 1.24501 1.89896 1.62801 1.50096C2.01101 1.10296 2.64401 1.09096 3.04201 1.47396C3.93601 2.33396 4.80001 3.21296 5.66201 4.08996C7.47401 5.93096 9.18301 7.67096 11.152 9.24096C12.315 10.169 13.38 10.989 14.408 11.747C15.268 12.382 16.179 12.985 17.026 12.799C17.859 12.613 19.6 10.995 20.535 10.125C20.82 9.85996 21.074 9.62396 21.281 9.44196C22.498 8.37396 23.712 7.23596 24.885 6.13496C26.737 4.39896 28.651 2.60396 30.667 0.993958C31.1 0.648958 31.729 0.720958 32.072 1.15096C32.417 1.58296 32.346 2.21196 31.915 2.55596C29.961 4.11696 28.075 5.88396 26.253 7.59396C25.067 8.70596 23.841 9.85496 22.601 10.945C22.406 11.116 22.166 11.34 21.897 11.59C20.215 13.154 18.721 14.472 17.459 14.752C17.198 14.81 16.941 14.836 16.692 14.836Z" fill="white"/>
<path d="M23.101 29.901C20.38 29.901 16.75 29.829 13.547 29.766C10.288 29.702 7.26999 29.639 5.86799 29.671L5.73099 29.672C4.27399 29.672 3.07099 29.199 2.15399 28.266C0.587992 26.672 0.391993 24.248 0.415993 22.946C0.496993 18.44 0.469993 13.781 0.441993 9.27597C0.429993 7.17797 0.417993 5.08797 0.415993 3.01797C0.414993 2.33997 0.687992 1.12198 2.52799 0.578976C3.48899 0.294976 4.65399 0.258976 5.56199 0.258976L6.76099 0.268974L7.01399 0.266975C9.56199 0.200975 16.949 0.166975 22.343 0.142975C25.639 0.127975 28.32 0.116975 29.013 0.100975L29.156 0.0999756C31.095 0.0999756 32.073 0.957975 32.551 1.67797C33.626 3.29597 33.638 7.12198 33.551 11.236C33.537 11.874 33.526 12.412 33.53 12.791C33.568 16.051 33.556 17.937 33.544 19.93C33.537 20.963 33.53 22.025 33.53 23.324C33.53 27.293 31.243 29.478 26.733 29.819C25.99 29.874 24.802 29.901 23.101 29.901ZM6.75299 27.664C8.35299 27.664 10.895 27.714 13.586 27.767C16.779 27.83 20.399 27.901 23.101 27.901C24.729 27.901 25.9 27.875 26.583 27.823C30.051 27.561 31.53 26.215 31.53 23.322C31.53 22.018 31.537 20.952 31.544 19.916C31.557 17.933 31.568 16.057 31.53 12.813C31.525 12.418 31.537 11.857 31.551 11.192C31.601 8.86197 31.702 4.01298 30.885 2.78398C30.583 2.32998 30.002 2.09898 29.156 2.09898C28.359 2.11498 25.665 2.12698 22.352 2.14198C16.967 2.16598 9.59199 2.19897 7.06699 2.26497L6.76099 2.26797L5.56199 2.25797C4.84899 2.25797 3.81799 2.28298 3.09399 2.49598C2.41499 2.69698 2.41499 2.91197 2.41499 3.01497C2.41699 5.08097 2.42999 7.16798 2.44099 9.26298C2.46799 13.78 2.49599 18.451 2.41499 22.981C2.38499 24.664 2.80999 26.08 3.57999 26.864C4.11399 27.407 4.81699 27.672 5.72999 27.672C6.08599 27.666 6.39699 27.664 6.75299 27.664Z" fill="white"/>
</svg>
