<svg width="24" height="20" viewBox="0 0 24 20" fill="none" xmlns="http://www.w3.org/2000/svg">
<path d="M23.8727 18.0622C23.8437 17.9707 23.8166 17.8948 23.7914 17.834C23.375 16.7387 22.5793 15.3942 21.4047 13.8002L21.3799 13.7637L21.3675 13.7458L21.3549 13.7275H21.3423C20.8092 12.9852 20.4716 12.4861 20.3303 12.2306C20.0716 11.7439 20.0137 11.2512 20.155 10.752C20.2549 10.3749 20.6301 9.57835 21.2797 8.3614C21.6213 7.71645 21.892 7.19955 22.0918 6.81011C23.5331 4.01144 24.1579 2.22306 23.9662 1.44425L23.8918 1.26225C23.8418 1.15269 23.7127 1.05245 23.5046 0.961035C23.2961 0.869813 23.0296 0.854728 22.7047 0.915521L19.106 0.95183C19.0477 0.921657 18.9644 0.92447 18.856 0.961035C18.7477 0.997601 18.6935 1.01595 18.6935 1.01595L18.6308 1.06165L18.5811 1.11657C18.5395 1.15288 18.4936 1.21674 18.4436 1.30803C18.3938 1.39899 18.3522 1.50575 18.319 1.6274C17.9272 3.09967 17.4817 4.46851 16.9817 5.73386C16.6735 6.48838 16.3904 7.14227 16.1319 7.69593C15.8737 8.2494 15.6571 8.65718 15.4823 8.91858C15.3072 9.18022 15.1492 9.38984 15.0073 9.54818C14.8657 9.70659 14.7575 9.77352 14.6826 9.74904C14.6076 9.72455 14.5369 9.70026 14.47 9.67597C14.3534 9.5664 14.2597 9.41739 14.189 9.22881C14.118 9.04023 14.0702 8.80287 14.0452 8.51693C14.0203 8.2308 14.0056 7.98469 14.0014 7.77776C13.9975 7.57109 13.9993 7.27875 14.0078 6.90159C14.0164 6.52424 14.0203 6.26892 14.0203 6.13506C14.0203 5.67262 14.0265 5.17074 14.0389 4.62929C14.0515 4.08784 14.0617 3.65883 14.0702 3.34278C14.0787 3.02641 14.0827 2.6917 14.0827 2.33883C14.0827 1.98596 14.068 1.70922 14.0389 1.50837C14.0102 1.30777 13.9661 1.11305 13.908 0.924278C13.8496 0.735697 13.7641 0.589819 13.6519 0.486259C13.5394 0.382827 13.3996 0.300747 13.2333 0.239761C12.7917 0.0938189 12.2294 0.0148707 11.5462 0.00259691C9.99681 -0.0216949 9.00124 0.124439 8.55972 0.440808C8.38478 0.574476 8.22648 0.757112 8.08494 0.98814C7.93495 1.25592 7.91402 1.40206 8.0223 1.4261C8.52221 1.53547 8.87611 1.79712 9.0844 2.21078L9.15946 2.42999C9.21784 2.58814 9.27614 2.86813 9.33448 3.26959C9.39273 3.67104 9.43033 4.11513 9.44687 4.60161C9.48845 5.48998 9.48845 6.25044 9.44687 6.88305C9.40516 7.51592 9.36577 8.00859 9.32818 8.36146C9.29058 8.71433 9.23439 9.00027 9.15946 9.21922C9.0844 9.43823 9.03446 9.57209 9.00942 9.62067C8.98443 9.66926 8.9636 9.69988 8.94706 9.71189C8.83878 9.7725 8.72616 9.80337 8.60961 9.80337C8.49289 9.80337 8.35134 9.7181 8.18477 9.54767C8.01823 9.37724 7.8454 9.14315 7.66626 8.845C7.48712 8.54678 7.28509 8.13005 7.06009 7.59474C6.83526 7.05942 6.60198 6.42675 6.36039 5.69672L6.1605 5.16729C6.03555 4.82669 5.86486 4.33075 5.64825 3.67993C5.43152 3.02884 5.23995 2.39904 5.07342 1.79066C5.00685 1.53515 4.90684 1.34063 4.77357 1.20677L4.71103 1.15185C4.66945 1.10327 4.60271 1.05168 4.51115 0.996706C4.41945 0.941794 4.32378 0.902415 4.22373 0.878187L0.799884 0.914498C0.450012 0.914498 0.21262 1.03027 0.0876214 1.26149L0.0375958 1.37086C0.0126049 1.43178 0 1.52908 0 1.663C0 1.79686 0.0249909 1.96115 0.0750165 2.15568C0.574835 3.87145 1.11838 5.52617 1.70564 7.12009C2.29291 8.71402 2.80323 9.99796 3.2363 10.9708C3.66946 11.9443 4.11098 12.8631 4.56086 13.7268C5.01075 14.5907 5.30854 15.1444 5.45424 15.3876C5.60011 15.6313 5.71469 15.8135 5.79798 15.9351L6.11043 16.3731C6.31036 16.6652 6.60395 17.015 6.99133 17.4225C7.3788 17.8303 7.80776 18.2317 8.27843 18.6275C8.74918 19.0226 9.29684 19.3451 9.9217 19.5944C10.5465 19.8441 11.1546 19.9442 11.7461 19.8959H13.1831C13.4746 19.8591 13.6954 19.7253 13.8455 19.4943L13.8952 19.4028C13.9286 19.3302 13.9599 19.2173 13.9888 19.0655C14.018 18.9134 14.0326 18.7459 14.0326 18.5636C14.024 18.0405 14.0513 17.5691 14.1136 17.1493C14.1759 16.7297 14.2469 16.4134 14.3263 16.2003C14.4056 15.9874 14.4952 15.8078 14.5948 15.6622C14.6947 15.5162 14.7659 15.4278 14.8076 15.3974C14.8491 15.3668 14.8822 15.346 14.9072 15.3335C15.1072 15.2362 15.3425 15.3305 15.6135 15.6167C15.8842 15.9026 16.1382 16.2557 16.3758 16.6753C16.6132 17.0953 16.8985 17.5665 17.2317 18.0896C17.565 18.6129 17.8565 19.0018 18.1063 19.2577L18.3562 19.4767C18.523 19.6229 18.7396 19.7567 19.0062 19.8784C19.2724 20 19.5056 20.0304 19.7058 19.9696L22.9046 19.8967C23.221 19.8967 23.4672 19.8202 23.6418 19.6684C23.8168 19.5163 23.9207 19.3488 23.9543 19.1665C23.9877 18.9841 23.9895 18.7771 23.9606 18.5457C23.931 18.3148 23.9018 18.1534 23.8727 18.0622Z" fill="white"/>
</svg>
